<?xml version="1.0" encoding="utf-8"?>
<!-- Generator: Adobe Illustrator 16.0.0, SVG Export Plug-In . SVG Version: 6.00 Build 0)  -->
<!DOCTYPE svg PUBLIC "-//W3C//DTD SVG 1.1//EN" "http://www.w3.org/Graphics/SVG/1.1/DTD/svg11.dtd">
<svg version="1.1" id="Camada_1" xmlns="http://www.w3.org/2000/svg" xmlns:xlink="http://www.w3.org/1999/xlink" x="0px" y="0px"
	 width="841.89px" height="841.89px" viewBox="0 0 841.89 841.89" enable-background="new 0 0 841.89 841.89" xml:space="preserve">
<path opacity="0.9" fill="none" stroke="#0C193B" stroke-linecap="round" stroke-linejoin="round" stroke-miterlimit="10" stroke-dasharray="5" d="
	M481.439,479.748c5.104-26.612-27.253-62.017-76.333-73.053c-49.077-11.034-109.661-6.722-153.12,9.081
	c-9.956,3.622-19.805,8.497-20.237,14.617c-0.449,6.323,9.701,11.805,21.286,14.453c23.925,5.467,53.632,1.262,72.831-7.687
	c32.896-15.338,35.938-43.247,9.158-61.279c-26.781-18.032-78.562-25.075-121.379-17.977"/>
<path opacity="0.9" fill="none" stroke="#0C193B" stroke-linecap="round" stroke-linejoin="round" stroke-miterlimit="10" stroke-dasharray="5" d="
	M561.813,376.667c-22.934,19.662-38.859,41.619-47.793,66.156c-0.932,2.557-1.754,5.231-1.143,7.845s3.018,5.154,6.422,5.63
	c5.125,0.715,9.492-3.77,8.904-7.743c-0.588-3.973-4.473-7.174-8.545-9.668c-16.051-9.826-38.369-13.151-58.184-9.019
	c-19.813,4.133-36.729,15.508-45.138,29.885c-3.692,6.314-5.81,13.561-3.123,20.167"/>
<g>
	<path fill="#0C193B" stroke="#0C193B" stroke-width="2" stroke-miterlimit="10" d="M616.548,481.236H211.5V351.593h405.048V481.236
		z M213.589,480.133H614.46V352.697H213.589V480.133z"/>
</g>
<g>
	<path fill="#443A60" d="M548.576,388.842l9.456-16.156l11.753,6.881L548.576,388.842z"/>
	<path fill="#795FB2" d="M589.75,402.092l-30.38-25.11l-10.633,11.418l1.943-17.29l-24.354-13.929l95.844-34.792L589.75,402.092z"/>
	<path fill="#5B4B8C" d="M550.497,371.992l-1.824,16.866l11.001-10.861l62.522-55.606L550.497,371.992z"/>
</g>
<text transform="matrix(1 0 0 1 262.1548 434.1943)"><tspan x="0" y="0" fill="#191919" font-family="'Oswald-Regular'" font-size="44.1686" letter-spacing="11">#</tspan><tspan x="32.943" y="0" fill="#191919" font-family="'Oswald-Regular'" font-size="44.1686" letter-spacing="13">GOING</tspan><tspan x="204.528" y="0" fill="#191919" font-family="'Oswald-Heavy'" font-size="44.1686" letter-spacing="12">F</tspan><tspan x="236.761" y="0" fill="#191919" font-family="'Oswald-Heavy'" font-size="44.1686" letter-spacing="13">A</tspan><tspan x="275.115" y="0" fill="#191919" font-family="'Oswald-Heavy'" font-size="44.1686" letter-spacing="8">R</tspan></text>
</svg>
