<?xml version="1.0" encoding="utf-8"?>
<!-- Generator: Adobe Illustrator 16.0.0, SVG Export Plug-In . SVG Version: 6.00 Build 0)  -->
<!DOCTYPE svg PUBLIC "-//W3C//DTD SVG 1.1//EN" "http://www.w3.org/Graphics/SVG/1.1/DTD/svg11.dtd">
<svg version="1.1" id="Camada_1" xmlns="http://www.w3.org/2000/svg" xmlns:xlink="http://www.w3.org/1999/xlink" x="0px" y="0px"
	 width="500px" height="200px" viewBox="0 0 500 200" enable-background="new 0 0 500 200" xml:space="preserve">
<path opacity="0.9" fill="none" stroke="#0C193B" stroke-linecap="round" stroke-linejoin="round" stroke-miterlimit="10" stroke-dasharray="5" d="
	M328.512,190.58c6.014-31.352-32.105-73.061-89.927-86.062C180.77,91.52,109.397,96.6,58.2,115.217
	c-11.729,4.267-23.332,10.01-23.84,17.22c-0.529,7.45,11.429,13.907,25.076,17.026c28.185,6.44,63.182,1.487,85.799-9.055
	c38.753-18.069,42.337-50.948,10.789-72.19C124.473,46.974,63.472,38.678,13.03,47.04"/>
<path opacity="0.9" fill="none" stroke="#0C193B" stroke-linecap="round" stroke-linejoin="round" stroke-miterlimit="10" stroke-dasharray="5" d="
	M423.196,69.143c-27.017,23.163-45.778,49.029-56.303,77.937c-1.099,3.012-2.066,6.162-1.346,9.24
	c0.72,3.08,3.554,6.073,7.564,6.633c6.038,0.843,11.183-4.44,10.49-9.121s-5.269-8.452-10.066-11.39
	c-18.909-11.576-45.202-15.494-68.545-10.625c-23.34,4.869-43.269,18.27-53.176,35.207c-4.349,7.438-6.843,15.975-3.679,23.758"/>
<g>
	<path fill="#0C193B" stroke="#0C193B" stroke-width="2" stroke-miterlimit="10" d="M487.679,192.333H10.504V39.604h477.175V192.333
		z M12.965,191.033h472.253V40.905H12.965V191.033z"/>
</g>
<g>
	<path fill="#443A60" d="M407.604,83.486l11.14-19.033l13.847,8.106L407.604,83.486z"/>
	<path fill="#795FB2" d="M456.109,99.095l-35.79-29.581l-12.526,13.451l2.289-20.368l-28.69-16.41l112.91-40.988L456.109,99.095z"/>
	<path fill="#5B4B8C" d="M409.866,63.635l-2.148,19.87l12.959-12.795l73.656-65.508L409.866,63.635z"/>
</g>
<text transform="matrix(1 0 0 1 70.1797 136.9141)"><tspan x="0" y="0" fill="#191919" font-family="'Oswald-Regular'" font-size="52.0337" letter-spacing="13">#</tspan><tspan x="38.809" y="0" fill="#191919" font-family="'Oswald-Regular'" font-size="52.0337" letter-spacing="15">GOING</tspan><tspan x="240.947" y="0" fill="#191919" font-family="'Oswald-Heavy'" font-size="52.0337" letter-spacing="14">F</tspan><tspan x="278.921" y="0" fill="#191919" font-family="'Oswald-Heavy'" font-size="52.0337" letter-spacing="15">A</tspan><tspan x="324.104" y="0" fill="#191919" font-family="'Oswald-Heavy'" font-size="52.0337" letter-spacing="10">R</tspan></text>
</svg>
