<?xml version="1.0" encoding="utf-8"?>
<!-- Generator: Adobe Illustrator 16.0.0, SVG Export Plug-In . SVG Version: 6.00 Build 0)  -->
<!DOCTYPE svg PUBLIC "-//W3C//DTD SVG 1.1//EN" "http://www.w3.org/Graphics/SVG/1.1/DTD/svg11.dtd">
<svg version="1.1" id="Camada_1" xmlns="http://www.w3.org/2000/svg" xmlns:xlink="http://www.w3.org/1999/xlink" x="0px" y="0px"
	 width="500px" height="200px" viewBox="0 0 500 200" enable-background="new 0 0 500 200" xml:space="preserve">
<path opacity="0.9" fill="none" stroke="#FFFFFF" stroke-linecap="round" stroke-linejoin="round" stroke-miterlimit="10" stroke-dasharray="5" d="
	M319.045,185.618c5.551-28.939-29.637-67.44-83.009-79.441c-53.369-11.999-119.25-7.309-166.509,9.875
	c-10.827,3.939-21.537,9.24-22.007,15.896c-0.488,6.877,10.55,12.837,23.147,15.717c26.017,5.945,58.321,1.372,79.199-8.358
	c35.772-16.679,39.08-47.029,9.958-66.638C130.702,53.06,74.393,45.401,27.832,53.12"/>
<path opacity="0.9" fill="none" stroke="#FFFFFF" stroke-linecap="round" stroke-linejoin="round" stroke-miterlimit="10" stroke-dasharray="5" d="
	M406.446,73.521c-24.939,21.382-42.258,45.259-51.973,71.941c-1.013,2.78-1.907,5.689-1.242,8.531s3.281,5.604,6.983,6.122
	c5.573,0.777,10.322-4.1,9.683-8.421c-0.64-4.319-4.863-7.801-9.292-10.513c-17.454-10.686-41.725-14.302-63.271-9.808
	c-21.545,4.494-39.94,16.864-49.086,32.498c-4.014,6.867-6.316,14.746-3.396,21.931"/>
<g>
	<path fill="#EAEAEA" d="M465.968,187.236H25.5V46.256h440.468V187.236z M27.771,186.036h435.926V47.457H27.771V186.036z"/>
</g>
<g>
	<path fill="#443A60" d="M392.052,86.762l10.283-17.569l12.781,7.482L392.052,86.762z"/>
	<path fill="#795FB2" d="M436.826,101.171L403.79,73.865l-11.563,12.417l2.113-18.802l-26.484-15.146l104.225-37.834
		L436.826,101.171z"/>
	<path fill="#5B4B8C" d="M394.141,68.439l-1.983,18.34l11.963-11.81L472.11,14.5L394.141,68.439z"/>
</g>
<text transform="matrix(1 0 0 1 80.585 136.0801)"><tspan x="0" y="0" fill="#FFFFFF" font-family="'Oswald-Regular'" font-size="48.031" letter-spacing="12">#</tspan><tspan x="35.823" y="0" fill="#FFFFFF" font-family="'Oswald-Regular'" font-size="48.031" letter-spacing="14">GOING</tspan><tspan x="222.413" y="0" fill="#E2E2E2" font-family="'Oswald-Heavy'" font-size="48.031" letter-spacing="13">F</tspan><tspan x="257.465" y="0" fill="#E2E2E2" font-family="'Oswald-Heavy'" font-size="48.031" letter-spacing="14">A</tspan><tspan x="299.173" y="0" fill="#E2E2E2" font-family="'Oswald-Heavy'" font-size="48.031" letter-spacing="9">R</tspan></text>
</svg>
