<?xml version="1.0" encoding="utf-8"?>
<!-- Generator: Adobe Illustrator 16.0.0, SVG Export Plug-In . SVG Version: 6.00 Build 0)  -->
<!DOCTYPE svg PUBLIC "-//W3C//DTD SVG 1.1//EN" "http://www.w3.org/Graphics/SVG/1.1/DTD/svg11.dtd">
<svg version="1.1" id="Camada_1" xmlns="http://www.w3.org/2000/svg" xmlns:xlink="http://www.w3.org/1999/xlink" x="0px" y="0px"
	 width="70px" height="150px" viewBox="0 0 70 150" enable-background="new 0 0 70 150" xml:space="preserve">
<path fill="#FFFFFF" d="M2.097,149.409c8.012-1.135,15.26-4.657,21.635-9.465c0.047,0.045,0.107,0.084,0.18,0.113
	c6.674,2.605,14.308,0.608,19.306-4.378c0.607-0.604,0.111-1.501-0.652-1.575c-4.582-0.447-10.152,0.074-14.54,2.298
	c3.516-3.155,6.719-6.668,9.577-10.327c1.803-2.31,3.539-4.713,5.189-7.186c0.018,0,0.029,0.006,0.045,0.004
	c0.002,0,0.002,0,0.004,0c7.537,2.021,14.986-2.664,17.355-9.951c0.166-0.508-0.191-1.016-0.664-1.17
	c-2.775-0.909-6.104,1.142-8.477,2.473c-1.766,0.994-3.424,2.144-4.979,3.421c3.852-6.518,7.055-13.463,9.252-20.65
	c0.121,0.082,0.281,0.117,0.479,0.064c7.203-1.959,12.666-8.256,14.17-15.466c0.145-0.689-0.428-1.335-1.146-1.146
	c-3.123,0.817-5.426,2.771-7.4,5.271c-1.691,2.143-3.496,4.55-4.934,7.014c0.318-1.297,0.617-2.598,0.865-3.906
	c0.357-1.864,0.607-3.735,0.768-5.609c0.023-0.069,0.037-0.144,0.023-0.23c-0.002-0.012-0.004-0.023-0.006-0.035
	c0.426-5.257,0.121-10.532-0.813-15.736c0.049-0.015,0.096-0.023,0.143-0.052c5.361-3.371,8.037-17.724,1.844-21.483
	c-0.379-0.229-0.811-0.116-1.131,0.146c-1.646,1.347-1.246,5.092-1.447,6.978c-0.303,2.856-0.541,5.72-0.713,8.588
	c-1.82-6.757-4.635-13.334-8.189-19.523c5.639-7.585,5.039-18.307-0.301-25.875c-0.461-0.652-1.547-0.631-1.775,0.231
	c-1.912,7.289-0.676,15.227,0.283,22.656c-3.279-5.244-7.071-10.176-11.215-14.66c-1.775-2.862-2.938-6.105-5.395-8.512
	c-2.228-2.181-4.974-3.378-8.052-3.729c-0.085-0.01-0.158,0.004-0.223,0.029c-0.722-0.449-1.897,0.07-1.505,1.025
	c1.238,3.019,2.521,6.188,4.899,8.512c2.75,2.685,6.736,4.107,10.128,5.79c0.014,0.007,0.025,0.007,0.038,0.013
	c5.375,6.226,10.197,12.998,13.949,20.197c-4.068-3.268-8.705-5.686-13.7-7.356c-0.743-0.249-1.418,0.674-1.015,1.32
	c3.458,5.509,10.023,11.573,16.898,11.897c0.199,0.01,0.371-0.063,0.508-0.181c3.26,7.646,5.236,15.72,5.352,24.095
	c-1.865-5.278-5.076-9.985-9.18-13.905c-0.705-0.675-1.625,0.03-1.506,0.877c0.922,6.529,4.209,14.462,10.109,18.029
	c0.145,0.088,0.281,0.112,0.412,0.113c-0.174,2.214-0.473,4.447-0.924,6.697c-1.064,5.304-2.717,10.501-4.824,15.529
	c1.199-6.043,1.156-12.186-2.52-17.566c-0.418-0.608-1.406-0.562-1.617,0.211c-1.803,6.571-2.432,15.41,1.559,21.336
	c0.1,0.15,0.229,0.238,0.365,0.285c-0.023,0.12-0.047,0.244-0.072,0.364c-0.023,0.127-0.002,0.233,0.037,0.329
	c-3.182,6.522-7.084,12.71-11.399,18.412c-0.676,0.893-1.37,1.762-2.076,2.618c1.982-3.857,2.901-8.212,2.831-12.59
	c-0.011-0.639-0.692-1.014-1.244-0.713c-2.464,1.336-3.663,4.646-4.593,7.17c-1.288,3.491-1.814,7.131-1.777,10.841
	c0.002,0.179,0.057,0.323,0.135,0.447c-4.251,4.294-8.969,7.973-14.169,10.901c3.044-3.317,4.874-7.699,5.425-12.177
	c0.104-0.833-1.032-1.118-1.547-0.642c-3.889,3.604-8.187,9.362-8.35,14.898c-0.018,0.015-0.033,0.03-0.051,0.046
	c-0.089,0.075-0.134,0.162-0.162,0.25c-3.089,1.394-6.329,2.536-9.732,3.397C1.24,148.653,1.515,149.492,2.097,149.409z
	 M29.59,14.977c-0.272-0.254-0.553-0.495-0.827-0.745c-0.103-0.222-0.21-0.44-0.325-0.654c0.003-0.006,0.007-0.013,0.012-0.019
	C28.857,14.004,29.238,14.476,29.59,14.977z"/>
</svg>
