<?xml version="1.0" encoding="utf-8"?>
<!-- Generator: Adobe Illustrator 16.0.0, SVG Export Plug-In . SVG Version: 6.00 Build 0)  -->
<!DOCTYPE svg PUBLIC "-//W3C//DTD SVG 1.1//EN" "http://www.w3.org/Graphics/SVG/1.1/DTD/svg11.dtd">
<svg version="1.1" id="Camada_1" xmlns="http://www.w3.org/2000/svg" xmlns:xlink="http://www.w3.org/1999/xlink" x="0px" y="0px"
	 width="70px" height="150px" viewBox="0 0 70 150" enable-background="new 0 0 70 150" xml:space="preserve">
<path fill="#FFFFFF" d="M69.357,148.5c-3.403-0.861-6.644-2.004-9.732-3.397c-0.028-0.088-0.073-0.175-0.162-0.25
	c-0.018-0.016-0.033-0.031-0.051-0.046c-0.163-5.536-4.461-11.294-8.35-14.898c-0.515-0.477-1.65-0.191-1.547,0.642
	c0.551,4.478,2.381,8.859,5.425,12.177c-5.2-2.929-9.918-6.607-14.169-10.901c0.078-0.124,0.133-0.269,0.135-0.447
	c0.037-3.71-0.489-7.35-1.777-10.841c-0.931-2.523-2.129-5.834-4.593-7.17c-0.552-0.301-1.233,0.074-1.244,0.713
	c-0.07,4.378,0.849,8.732,2.831,12.59c-0.706-0.856-1.4-1.726-2.076-2.618c-4.315-5.702-8.218-11.89-11.4-18.412
	c0.039-0.096,0.062-0.202,0.037-0.329c-0.024-0.12-0.047-0.244-0.071-0.364c0.135-0.047,0.264-0.135,0.365-0.285
	c3.99-5.926,3.36-14.765,1.558-21.336c-0.211-0.772-1.2-0.819-1.616-0.211c-3.677,5.381-3.72,11.523-2.521,17.566
	c-2.106-5.028-3.759-10.226-4.823-15.529c-0.452-2.25-0.751-4.483-0.924-6.697c0.129-0.001,0.267-0.025,0.411-0.113
	c5.901-3.567,9.188-11.5,10.109-18.029c0.12-0.847-0.799-1.552-1.506-0.877c-4.103,3.92-7.313,8.627-9.18,13.905
	c0.116-8.375,2.092-16.448,5.353-24.095c0.136,0.118,0.308,0.19,0.507,0.181c6.875-0.324,13.441-6.388,16.898-11.897
	c0.403-0.646-0.271-1.568-1.015-1.32c-4.996,1.671-9.631,4.089-13.701,7.356c3.753-7.199,8.574-13.972,13.95-20.197
	c0.013-0.006,0.024-0.006,0.038-0.013c3.392-1.683,7.378-3.105,10.128-5.79c2.379-2.324,3.661-5.493,4.899-8.512
	c0.393-0.955-0.783-1.474-1.505-1.025c-0.064-0.025-0.138-0.04-0.223-0.029c-3.078,0.351-5.824,1.548-8.052,3.729
	c-2.457,2.406-3.619,5.649-5.395,8.512c-4.144,4.484-7.937,9.417-11.216,14.66c0.959-7.429,2.196-15.367,0.283-22.656
	c-0.227-0.862-1.314-0.884-1.774-0.231c-5.34,7.568-5.939,18.291-0.301,25.875c-3.555,6.189-6.37,12.766-8.189,19.523
	c-0.172-2.868-0.41-5.731-0.714-8.588c-0.2-1.886,0.201-5.63-1.447-6.978c-0.32-0.262-0.752-0.375-1.13-0.146
	c-6.194,3.759-3.518,18.112,1.844,21.483c0.046,0.029,0.094,0.037,0.143,0.052c-0.934,5.204-1.239,10.479-0.813,15.736
	c-0.002,0.012-0.004,0.023-0.006,0.035c-0.014,0.087,0,0.161,0.023,0.23c0.161,1.874,0.412,3.745,0.768,5.609
	c0.249,1.309,0.547,2.609,0.866,3.906c-1.439-2.464-3.243-4.871-4.934-7.014c-1.975-2.501-4.277-4.454-7.4-5.271
	c-0.719-0.188-1.291,0.457-1.147,1.146c1.505,7.21,6.968,13.507,14.17,15.466c0.198,0.053,0.357,0.018,0.479-0.064
	c2.198,7.188,5.401,14.133,9.252,20.65c-1.555-1.277-3.213-2.427-4.979-3.421c-2.372-1.331-5.701-3.382-8.475-2.473
	c-0.473,0.154-0.831,0.662-0.666,1.17c2.369,7.287,9.82,11.972,17.356,9.951c0.001,0,0.002,0,0.003,0
	c0.016,0.002,0.029-0.004,0.045-0.004c1.651,2.473,3.387,4.876,5.191,7.186c2.857,3.659,6.061,7.172,9.576,10.327
	c-4.388-2.224-9.958-2.745-14.541-2.298c-0.763,0.074-1.259,0.971-0.652,1.575c5,4.986,12.633,6.983,19.307,4.378
	c0.072-0.029,0.133-0.068,0.18-0.113c6.375,4.808,13.623,8.33,21.635,9.465C69.688,149.492,69.963,148.653,69.357,148.5z
	 M42.753,13.559c0.005,0.006,0.009,0.013,0.012,0.019c-0.115,0.214-0.223,0.432-0.325,0.654c-0.274,0.25-0.555,0.491-0.827,0.745
	C41.965,14.476,42.346,14.004,42.753,13.559z"/>
</svg>
